<svg xmlns="http://www.w3.org/2000/svg" viewBox="0 0 53.25 53.25"><defs><style>.cls-1{fill:#262626;}</style></defs><g id="Слой_2" data-name="Слой 2"><g id="Layer_1" data-name="Layer 1"><path class="cls-1" d="M40.62,53.25h-28a.63.63,0,0,1-.62-.63v-42a.61.61,0,0,1,.42-.58l28-10A.64.64,0,0,1,41,.11a.64.64,0,0,1,.26.51v52A.63.63,0,0,1,40.62,53.25ZM13.25,52H40V1.51L13.25,11.06Z"/><path class="cls-1" d="M48.62,53.25a.63.63,0,0,1-.62-.63V32.1l-7.54-2.05a.64.64,0,0,1-.44-.77.62.62,0,0,1,.77-.44l8,2.18a.63.63,0,0,1,.46.6v21A.63.63,0,0,1,48.62,53.25Z"/><path class="cls-1" d="M4.62,53.25A.63.63,0,0,1,4,52.62v-33a.63.63,0,0,1,.79-.6l8,2.18a.63.63,0,1,1-.33,1.21l-7.21-2V52.62A.63.63,0,0,1,4.62,53.25Z"/><path class="cls-1" d="M52.62,53.25H.62A.63.63,0,0,1,.62,52h52a.63.63,0,1,1,0,1.25Z"/><path class="cls-1" d="M26.62,50.25a.63.63,0,0,1-.62-.63v-41a.63.63,0,0,1,1.25,0v41A.63.63,0,0,1,26.62,50.25Z"/><path class="cls-1" d="M37.62,32.25h-22a.63.63,0,0,1,0-1.25h22a.63.63,0,1,1,0,1.25Z"/><path class="cls-1" d="M37.62,21.25h-22a.63.63,0,0,1,0-1.25h22a.63.63,0,1,1,0,1.25Z"/><path class="cls-1" d="M37.62,43.25h-22a.63.63,0,0,1,0-1.25h22a.63.63,0,1,1,0,1.25Z"/><path class="cls-1" d="M45.62,43.25h-5a.63.63,0,0,1,0-1.25h5a.63.63,0,1,1,0,1.25Z"/><path class="cls-1" d="M12.62,32.25h-5a.63.63,0,0,1,0-1.25h5a.63.63,0,1,1,0,1.25Z"/><path class="cls-1" d="M12.62,43.25h-5a.63.63,0,0,1,0-1.25h5a.63.63,0,1,1,0,1.25Z"/><path class="cls-1" d="M19.62,50.25a.63.63,0,0,1-.62-.63V11.12a.63.63,0,0,1,1.25,0v38.5A.63.63,0,0,1,19.62,50.25Z"/><path class="cls-1" d="M33.62,50.25a.63.63,0,0,1-.62-.63V6a.63.63,0,0,1,1.25,0V49.62A.63.63,0,0,1,33.62,50.25Z"/></g></g></svg>