<svg xmlns="http://www.w3.org/2000/svg" viewBox="0 0 53.25 33.25"><defs><style>.cls-1{fill:#262626;}</style></defs><g id="Слой_2" data-name="Слой 2"><g id="Layer_1" data-name="Layer 1"><path class="cls-1" d="M29.62,33.25h-26A.63.63,0,0,1,3,32.62,2.38,2.38,0,0,0,.62,30.25.63.63,0,0,1,0,29.62v-26A.62.62,0,0,1,.62,3,2.39,2.39,0,0,0,3,.62.62.62,0,0,1,3.62,0h26a.63.63,0,0,1,.63.62A2.38,2.38,0,0,0,32.62,3a.63.63,0,1,1,0,1.25,3.64,3.64,0,0,1-3.57-3H4.2a3.66,3.66,0,0,1-2.95,3V29.05A3.66,3.66,0,0,1,4.2,32H29.05a3.64,3.64,0,0,1,3.57-3,.63.63,0,1,1,0,1.25,2.38,2.38,0,0,0-2.37,2.37A.63.63,0,0,1,29.62,33.25Z"/><path class="cls-1" d="M49.62,33.25h-14a.63.63,0,0,1-.62-.63,2.38,2.38,0,0,0-2.38-2.37.63.63,0,0,1-.62-.63v-1.5a.63.63,0,0,1,1.25,0v.93a3.66,3.66,0,0,1,3,2.95H49.05a3.66,3.66,0,0,1,3-2.95V4.2a3.66,3.66,0,0,1-3-2.95H36.2a3.66,3.66,0,0,1-3,3v.92a.63.63,0,1,1-1.25,0V3.62A.62.62,0,0,1,32.62,3,2.39,2.39,0,0,0,35,.62.62.62,0,0,1,35.62,0h14a.63.63,0,0,1,.63.62A2.38,2.38,0,0,0,52.62,3a.63.63,0,0,1,.63.62v26a.63.63,0,0,1-.63.63,2.38,2.38,0,0,0-2.37,2.37A.63.63,0,0,1,49.62,33.25Z"/><path class="cls-1" d="M27.62,17.25h-8a.63.63,0,0,1,0-1.25h8a.63.63,0,1,1,0,1.25Z"/><path class="cls-1" d="M16.62,17.25h-11a.63.63,0,0,1,0-1.25h11a.63.63,0,1,1,0,1.25Z"/><path class="cls-1" d="M47.62,17.25h-10a.63.63,0,0,1,0-1.25h10a.63.63,0,1,1,0,1.25Z"/><path class="cls-1" d="M27.62,12.25h-22A.63.63,0,0,1,5,11.62v-5A.62.62,0,0,1,5.62,6h22a.63.63,0,0,1,.63.62v5A.63.63,0,0,1,27.62,12.25ZM6.25,11H27V7.25H6.25Z"/><path class="cls-1" d="M47.62,12.25h-10a.63.63,0,0,1-.62-.63v-5A.62.62,0,0,1,37.62,6h10a.63.63,0,0,1,.63.62v5A.63.63,0,0,1,47.62,12.25ZM38.25,11H47V7.25H38.25Z"/><path class="cls-1" d="M27.62,22.25h-13a.63.63,0,0,1,0-1.25h13a.63.63,0,1,1,0,1.25Z"/><path class="cls-1" d="M11.62,22.25h-6a.63.63,0,0,1,0-1.25h6a.63.63,0,1,1,0,1.25Z"/><path class="cls-1" d="M47.62,22.25h-10a.63.63,0,0,1,0-1.25h10a.63.63,0,1,1,0,1.25Z"/><path class="cls-1" d="M19.62,27.25h-14a.63.63,0,0,1,0-1.25h14a.63.63,0,1,1,0,1.25Z"/><path class="cls-1" d="M43.62,27.25h-6a.63.63,0,0,1,0-1.25h6a.63.63,0,1,1,0,1.25Z"/><path class="cls-1" d="M32.62,25.75a.63.63,0,0,1-.62-.63v-2a.63.63,0,0,1,1.25,0v2A.63.63,0,0,1,32.62,25.75Z"/><path class="cls-1" d="M32.62,20.75a.63.63,0,0,1-.62-.63v-2a.63.63,0,0,1,1.25,0v2A.63.63,0,0,1,32.62,20.75Z"/><path class="cls-1" d="M32.62,15.75a.63.63,0,0,1-.62-.63v-2a.63.63,0,0,1,1.25,0v2A.63.63,0,0,1,32.62,15.75Z"/><path class="cls-1" d="M32.62,10.75a.63.63,0,0,1-.62-.63v-2a.63.63,0,0,1,1.25,0v2A.63.63,0,0,1,32.62,10.75Z"/></g></g></svg>